<svg xmlns="http://www.w3.org/2000/svg">

  <symbol id="undo" viewBox="0 0 32 32">
    <title>Undo</title>
    <path d="M23.808 32c3.554-6.439 4.153-16.26-9.808-15.932v7.932l-12-12 12-12v7.762c16.718-0.436 18.58 14.757 9.808 24.238z" />
  </symbol>

  <symbol id="redo" viewBox="0 0 32 32">
    <title>Redo</title>
    <path d="M18 7.762v-7.762l12 12-12 12v-7.932c-13.961-0.328-13.362 9.493-9.808 15.932-8.772-9.482-6.909-24.674 9.808-24.238z" />
  </symbol>

  <symbol id="forward" viewBox="0 0 32 32">
    <title>Forward</title>
    <path d="M8.192 0c-3.554 6.439-4.153 16.259 9.808 15.932v-7.932l12 12-12 12v-7.762c-16.718 0.436-18.58-14.757-9.808-24.238z" />
  </symbol>

  <symbol id="reply" viewBox="0 0 32 32">
    <title>Reply</title>
    <path d="M14 24.238v7.762l-12-12 12-12v7.932c13.961 0.327 13.362-9.493 9.808-15.932 8.772 9.482 6.909 24.674-9.808 24.238z" />
  </symbol>

</svg>
